<?xml version="1.0" encoding="UTF-8" standalone="no"?>
<!-- Created with Inkscape (http://www.inkscape.org/) -->

<svg
   width="129.99998"
   height="199.99998"
   viewBox="0 0 34.395828 52.916663"
   version="1.1"
   id="svg5"
   inkscape:version="1.3 (0e150ed6c4, 2023-07-21)"
   sodipodi:docname="chienDansCabane.svg"
   xmlns:inkscape="http://www.inkscape.org/namespaces/inkscape"
   xmlns:sodipodi="http://sodipodi.sourceforge.net/DTD/sodipodi-0.dtd"
   xmlns:xlink="http://www.w3.org/1999/xlink"
   xmlns="http://www.w3.org/2000/svg"
   xmlns:svg="http://www.w3.org/2000/svg"
   xmlns:rdf="http://www.w3.org/1999/02/22-rdf-syntax-ns#"
   xmlns:cc="http://creativecommons.org/ns#"
   xmlns:dc="http://purl.org/dc/elements/1.1/">
  <title
     id="title2">jeu_memory</title>
  <sodipodi:namedview
     id="namedview7"
     pagecolor="#ffffff"
     bordercolor="#666666"
     borderopacity="1.0"
     inkscape:pageshadow="2"
     inkscape:pageopacity="0.0"
     inkscape:pagecheckerboard="0"
     inkscape:document-units="px"
     showgrid="false"
     units="px"
     inkscape:snap-global="false"
     showguides="false"
     inkscape:guide-bbox="true"
     inkscape:zoom="1.6048168"
     inkscape:cx="60.443038"
     inkscape:cy="85.679564"
     inkscape:window-width="1920"
     inkscape:window-height="1046"
     inkscape:window-x="-11"
     inkscape:window-y="-11"
     inkscape:window-maximized="1"
     inkscape:current-layer="layer6"
     inkscape:showpageshadow="2"
     inkscape:deskcolor="#d1d1d1">
    <sodipodi:guide
       position="113.56138,235.43375"
       orientation="1,0"
       id="guide875"
       inkscape:locked="false" />
  </sodipodi:namedview>
  <defs
     id="defs2">
    <radialGradient
       inkscape:collect="always"
       xlink:href="#linearGradient54492"
       id="radialGradient85979"
       gradientUnits="userSpaceOnUse"
       gradientTransform="matrix(-2.6439474,0.25397194,0.29568626,3.0782098,140.19283,-55.786117)"
       cx="41.503201"
       cy="21.946098"
       fx="41.503201"
       fy="21.946098"
       r="1.0222465" />
    <linearGradient
       inkscape:collect="always"
       id="linearGradient54492">
      <stop
         style="stop-color:#a46b3b;stop-opacity:1"
         offset="0"
         id="stop54482" />
      <stop
         style="stop-color:#784e2b;stop-opacity:1;"
         offset="0.52375454"
         id="stop54484" />
      <stop
         style="stop-color:#754c29;stop-opacity:1;"
         offset="0.69045699"
         id="stop54486" />
      <stop
         style="stop-color:#734b28;stop-opacity:1;"
         offset="0.82778621"
         id="stop54488" />
      <stop
         style="stop-color:#5f3e22;stop-opacity:0"
         offset="1"
         id="stop54490" />
    </linearGradient>
    <radialGradient
       inkscape:collect="always"
       xlink:href="#linearGradient54492"
       id="radialGradient85981"
       gradientUnits="userSpaceOnUse"
       gradientTransform="matrix(2.5122365,-0.8623381,0.9193317,2.6782752,-82.629232,-1.1082786)"
       cx="41.503201"
       cy="21.946098"
       fx="41.503201"
       fy="21.946098"
       r="1.0222465" />
    <radialGradient
       inkscape:collect="always"
       xlink:href="#linearGradient52963"
       id="radialGradient85983"
       gradientUnits="userSpaceOnUse"
       gradientTransform="matrix(0.99957234,0.02855557,-0.03460584,1.1550906,0.75158097,-4.3701299)"
       cx="39.150627"
       cy="21.234478"
       fx="39.150627"
       fy="21.234478"
       r="1.5806686" />
    <linearGradient
       inkscape:collect="always"
       id="linearGradient52963">
      <stop
         style="stop-color:#a46b3b;stop-opacity:1"
         offset="0"
         id="stop52959" />
      <stop
         style="stop-color:#784e2b;stop-opacity:1;"
         offset="0.52375454"
         id="stop53351" />
      <stop
         style="stop-color:#754c29;stop-opacity:1;"
         offset="0.69045699"
         id="stop53993" />
      <stop
         style="stop-color:#734b28;stop-opacity:1;"
         offset="0.82778621"
         id="stop54123" />
      <stop
         style="stop-color:#5f3e22;stop-opacity:1"
         offset="1"
         id="stop52961" />
    </linearGradient>
    <filter
       inkscape:collect="always"
       style="color-interpolation-filters:sRGB"
       id="filter83678"
       x="-0.060271861"
       y="-0.059089456"
       width="1.1205437"
       height="1.1181789">
      <feGaussianBlur
         inkscape:collect="always"
         stdDeviation="0.044857165"
         id="feGaussianBlur83680" />
    </filter>
    <filter
       inkscape:collect="always"
       style="color-interpolation-filters:sRGB"
       id="filter83762"
       x="-0.12238258"
       y="-0.029854695"
       width="1.2447652"
       height="1.0597094">
      <feGaussianBlur
         inkscape:collect="always"
         stdDeviation="0.042013824"
         id="feGaussianBlur83764" />
    </filter>
    <filter
       inkscape:collect="always"
       style="color-interpolation-filters:sRGB"
       id="filter83766"
       x="-0.11510178"
       y="-0.030356976"
       width="1.2302036"
       height="1.060714">
      <feGaussianBlur
         inkscape:collect="always"
         stdDeviation="0.042171828"
         id="feGaussianBlur83768" />
    </filter>
    <radialGradient
       inkscape:collect="always"
       xlink:href="#linearGradient86961"
       id="radialGradient86963"
       cx="57.477859"
       cy="29.199659"
       fx="57.477859"
       fy="29.199659"
       r="0.56455803"
       gradientTransform="matrix(-0.16196354,3.6609447,-4.0330974,-0.10250618,293.89465,-117.11127)"
       gradientUnits="userSpaceOnUse" />
    <linearGradient
       inkscape:collect="always"
       id="linearGradient86961">
      <stop
         style="stop-color:#ffaaaa;stop-opacity:1;"
         offset="0"
         id="stop86957" />
      <stop
         style="stop-color:#ff9494;stop-opacity:1;"
         offset="0.58591986"
         id="stop87516" />
      <stop
         style="stop-color:#ff5555;stop-opacity:1"
         offset="1"
         id="stop86959" />
    </linearGradient>
  </defs>
  <g
     inkscape:groupmode="layer"
     id="layer6"
     inkscape:label="fond"
     transform="translate(-91.645129,-65.266245)">
    <rect
       style="fill:#008000;fill-opacity:1;stroke-width:0.0572298"
       id="rect4799"
       width="26.252932"
       height="36.792164"
       x="92.443329"
       y="73.003021" />
    <rect
       style="fill:#00ffff;fill-opacity:1;stroke-width:0.0319498"
       id="rect4903"
       width="22.609383"
       height="13.314975"
       x="93.36805"
       y="66.115608" />
  </g>
  <g
     inkscape:groupmode="layer"
     id="layer2"
     inkscape:label="cabane"
     style="display:inline"
     transform="translate(-91.645129,-65.266245)">
    <rect
       style="display:inline;fill:#552200;stroke-width:0.00818935"
       id="rect855"
       width="31.525717"
       height="7.3559666"
       x="93.052719"
       y="109.31429" />
    <rect
       style="display:inline;fill:#552200;stroke-width:0.0051651"
       id="rect2"
       width="11.164491"
       height="8.262742"
       x="112.91934"
       y="65.789078" />
    <path
       id="path10844"
       style="fill:#6d2c00;fill-opacity:1;stroke-width:1.06027"
       d="m 113.2137,67.51105 12.63981,1.45521 -0.0168,42.0474 -12.80643,-1.44949 z"
       sodipodi:nodetypes="ccccc" />
    <path
       id="rect11030"
       style="fill:#6d2c00;stroke-width:1.45576"
       d="m 122.71245,88.804761 3.45161,-0.30423 -0.005,1.68607 -3.45162,-0.25701 z"
       sodipodi:nodetypes="ccccc" />
    <g
       id="g1"
       transform="matrix(0.5091414,0,0,0.5091414,24.397968,44.138132)">
      <g
         id="g85977"
         transform="matrix(4.7138252,0,0,4.7138252,-18.808819,-16.154607)">
        <path
           id="path85915"
           style="fill:#7d512c;fill-opacity:1;stroke-width:0.184471"
           d="m 41.681603,23.487422 c 0.235892,0.202736 0.0381,0.635186 0.150225,1.262285 0.09077,0.507649 0.06069,0.914704 -0.0266,1.329169 -0.01591,0.07557 -0.01802,0.31207 -0.03936,0.377885 -0.13835,0.426797 -0.3689,0.564822 -0.604793,0.362086 0.0058,-1.398332 0.447527,-2.391284 0.520528,-3.331425 z"
           sodipodi:nodetypes="cssscc" />
        <path
           style="fill:#b79681;fill-opacity:1;stroke:none;stroke-width:0.264583px;stroke-linecap:butt;stroke-linejoin:miter;stroke-opacity:1"
           d="m 40.761943,24.485229 c 0.265042,-0.01601 0.530084,-0.03117 0.795126,0.257247 0.317916,0.375871 0.474726,0.912848 0.608039,1.473323 l 0.04677,1.847502 0.07016,1.333005 -0.07016,1.660414 0.187087,0.748353 c -0.262703,0.336555 -0.40902,0.518175 -1.005599,0.07016 0.245206,-0.505278 0.219293,-1.119004 0.257246,-1.707183 z"
           id="path85917"
           sodipodi:nodetypes="cccccccccc" />
        <path
           style="fill:url(#radialGradient85979);fill-opacity:1;stroke:none;stroke-width:0.065;stroke-linecap:butt;stroke-linejoin:miter;stroke-miterlimit:4;stroke-dasharray:none;stroke-opacity:1"
           d="m 38.026528,20.193388 c -0.112388,-0.473523 -0.667925,-0.101362 -1.131226,0.09479 0.06118,0.34371 -0.406136,0.404794 -0.694459,0.561599 0.02198,0.214838 0.09614,0.436174 -0.147656,0.617913 0.09032,0.282266 0.03963,0.546971 0.294806,0.849767 0.07768,0.429022 0.17691,0.822934 0.641333,0.621906 0.302409,-0.01654 0.533468,0.08536 0.677462,0.331821 0.178378,-0.417698 0.372304,-0.83346 0.06902,-1.311142 z"
           id="path85919"
           sodipodi:nodetypes="ccccccccc"
           inkscape:transform-center-x="1.0953002"
           inkscape:transform-center-y="1.5851895" />
        <path
           style="fill:url(#radialGradient85981);fill-opacity:1;stroke:none;stroke-width:0.065;stroke-linecap:butt;stroke-linejoin:miter;stroke-miterlimit:4;stroke-dasharray:none;stroke-opacity:1"
           d="m 40.079879,20.256421 c -0.05544,-0.48351 0.593583,-0.322579 1.095982,-0.295771 0.05942,0.344018 0.519637,0.242451 0.84411,0.291797 0.05243,0.209498 0.05801,0.442861 0.349094,0.530803 0.01111,0.296156 0.148844,0.527819 0.01192,0.899373 0.07293,0.429855 0.113653,0.834027 -0.39146,0.803016 -0.289993,0.08734 -0.472594,0.261782 -0.524136,0.542532 C 41.15553,22.69609 40.83171,22.371119 40.954364,21.818745 Z"
           id="path85921"
           sodipodi:nodetypes="ccccccccc"
           inkscape:transform-center-x="-1.3360902"
           inkscape:transform-center-y="1.3292837" />
        <path
           id="path85923"
           style="fill:url(#radialGradient85983);fill-opacity:1;stroke:none;stroke-width:0.254542;stroke-opacity:1"
           d="m 40.602608,21.292793 c -0.144931,0.309901 -0.303151,1.746669 -1.309181,1.687971 -0.752426,-0.0439 -1.07587,-0.964242 -1.419431,-1.765922 -0.431457,-1.006776 0.04601,-1.528192 1.259753,-1.623445 1.500588,-0.117764 1.494657,0.840278 1.468859,1.701396 z"
           sodipodi:nodetypes="cscsc" />
        <ellipse
           style="fill:#ffffff;fill-opacity:1;stroke:#1a1a1a;stroke-width:0.079375;stroke-miterlimit:4;stroke-dasharray:none;stroke-opacity:1"
           id="ellipse85925"
           cx="38.400875"
           cy="21.033588"
           rx="0.2864404"
           ry="0.19984214" />
        <ellipse
           style="fill:#ececec;fill-opacity:1;stroke:#1a1a1a;stroke-width:0.079375;stroke-miterlimit:4;stroke-dasharray:none;stroke-opacity:1"
           id="ellipse85927"
           cx="39.943794"
           cy="20.701267"
           rx="0.2864404"
           ry="0.19984214" />
        <path
           style="fill:#c5aca0;fill-opacity:1;stroke:none;stroke-width:0.264583px;stroke-linecap:butt;stroke-linejoin:miter;stroke-opacity:1"
           d="m 38.481799,22.637729 -0.08185,1.800728 c -0.69465,0.191388 -0.732084,2.046181 -0.724969,3.811931 l 0.561266,3.741774 c -0.434413,0.446186 -0.833593,0.465732 -0.233863,0.818512 l 1.052375,-0.257246 0.514493,-3.811931 c 1.551477,-0.494413 0.897855,2.657147 1.192691,3.905477 0.997157,0.355092 1.007141,0.05014 0.631423,-0.771743 l 0.02339,-1.964431 10e-7,-3.519606 C 40.996919,25.688611 41.185278,24.52544 40.340997,24.204595 l -0.140316,-1.590253 c -0.45645,0.595441 -1.010019,0.12623 -1.718883,0.02339 z"
           id="path85929"
           sodipodi:nodetypes="ccccccccccccccc" />
        <path
           id="path85931"
           style="fill:#7d512c;fill-opacity:1;stroke-width:0.21928;filter:url(#filter83678)"
           d="m 40.177289,22.637729 c 0,0.278778 0.205572,0.782978 -0.0311,0.831201 -0.181776,0.03704 -0.103009,0.253648 -0.227653,0.30655 -0.132092,0.05606 -0.05574,0.416399 -0.165117,0.543243 -0.215635,0.250074 -0.238594,-0.520371 -0.640826,-0.522899 -0.299416,-0.0019 -0.160785,-0.189177 -0.253692,-0.237149 -0.14833,-0.07659 -0.295535,-0.187316 -0.21589,-0.240412 0.08183,-0.05455 0.09043,-0.224172 -0.06849,-0.273732 -0.140746,-0.04389 -0.09272,-0.226305 -0.09272,-0.406802 0.674504,-0.137241 1.213456,-0.104341 1.69549,0 z"
           sodipodi:nodetypes="cssssssscc" />
        <path
           id="path85933"
           style="fill:#b79d90;fill-opacity:1;stroke:#b79d90;stroke-width:0.094107;stroke-opacity:1"
           d="m 40.322155,22.069674 c 0,0.523597 -0.435087,0.948056 -0.971794,0.948056 -0.536707,0 -0.971794,-0.424459 -0.971794,-0.948056 0,-0.362423 0.313351,-0.556328 0.514777,-0.836888 0.02929,-0.04079 0.08317,-0.05906 0.09478,-0.09997 0.03851,-0.135667 -0.33008,-1.168517 -0.330846,-1.379658 -2.11e-4,-0.05818 0.413357,-0.154733 0.430617,-0.08109 0.03059,0.130511 0.09692,1.022881 0.11114,1.377774 0.0023,0.05724 0.08606,0.03738 0.151323,0.07177 0.474824,0.250192 0.971794,0.42446 0.971794,0.948057 z"
           sodipodi:nodetypes="ssssssssss" />
        <path
           id="path85935"
           style="fill:#2b1100;stroke:#1a1a1a;stroke-width:0.079375"
           d="m 39.708943,21.863743 c 0,0.101993 -0.04899,0.08295 -0.145449,0.13956 -0.06573,0.03857 -0.09456,0.278444 -0.182846,0.278444 -0.02394,0 -0.106647,0.01808 -0.107357,-0.0049 -0.01004,-0.327175 -0.324158,-0.153205 -0.324292,-0.305621 -1.51e-4,-0.171494 0.176597,-0.310518 0.394441,-0.310518 0.217844,0 0.365503,0.03154 0.365502,0.203031 z"
           sodipodi:nodetypes="ssssssss" />
        <ellipse
           style="fill:#2b1100;fill-opacity:1;stroke:#552200;stroke-width:0.0706456;stroke-miterlimit:4;stroke-dasharray:none;stroke-opacity:1"
           id="ellipse85937"
           cx="38.397285"
           cy="21.03359"
           rx="0.11108542"
           ry="0.12729785" />
        <ellipse
           style="fill:#2b1100;fill-opacity:1;stroke:#552200;stroke-width:0.0706456;stroke-miterlimit:4;stroke-dasharray:none;stroke-opacity:1"
           id="ellipse85939"
           cx="39.931042"
           cy="20.702862"
           rx="0.11108542"
           ry="0.12729785" />
        <path
           id="path85941"
           style="fill:#7d512c;fill-opacity:1;stroke-width:0.184471;filter:url(#filter83762)"
           d="m 38.316771,24.735337 c 0.235892,0.202736 0.0381,0.635186 0.150225,1.262285 0.09077,0.507649 0.06069,0.914704 -0.0266,1.329169 -0.01591,0.07557 -0.01802,0.31207 -0.03936,0.377885 -0.13835,0.426797 -0.462444,0.494664 -0.698337,0.291928 -0.0079,-1.422694 -0.06524,-3.395946 0.614072,-3.261267 z"
           sodipodi:nodetypes="cssscc" />
        <path
           id="path85943"
           style="fill:#7d512c;fill-opacity:1;stroke-width:0.184471;filter:url(#filter83766)"
           d="m 40.761943,24.485229 c -0.235892,0.202736 -0.0381,0.635186 -0.150225,1.262285 -0.09077,0.507649 -0.06069,0.914704 0.0266,1.329169 0.01591,0.07557 0.01802,0.31207 0.03936,0.377885 0.13835,0.426797 0.520909,0.436199 0.756802,0.233463 0.0079,-1.422694 0.0068,-3.337481 -0.672537,-3.202802 z"
           sodipodi:nodetypes="cssscc" />
        <path
           id="path85945"
           style="fill:#7d512c;fill-opacity:1;stroke-width:0.184471;filter:url(#filter83766)"
           d="m 39.488636,25.097078 c -0.235892,0.202736 -0.0381,0.635186 -0.150225,1.262285 -0.09077,0.507649 -0.06069,0.914704 0.0266,1.329169 0.01591,0.07557 0.01802,0.31207 0.03936,0.377885 0.13835,0.426797 0.520909,0.436199 0.756802,0.233463 0.0079,-1.422694 0.0068,-3.337481 -0.672537,-3.202802 z"
           sodipodi:nodetypes="cssscc"
           transform="matrix(0.40211856,0,0,0.40211856,23.839641,14.543665)" />
        <path
           id="path85947"
           style="fill:#7d512c;fill-opacity:1;stroke-width:0.184471;filter:url(#filter83766)"
           d="m 39.488636,25.097078 c -0.235892,0.202736 0.384303,0.915723 -0.150225,1.262285 -0.835173,0.541486 -0.595171,0.938999 0.0266,1.329169 0.06541,0.04105 0.01802,0.31207 0.03936,0.377885 0.13835,0.426797 0.520909,0.436199 0.756802,0.233463 1.67494,-2.803956 0.156697,-3.461681 -0.672537,-3.202802 z"
           sodipodi:nodetypes="cssscc"
           transform="matrix(-0.26666105,0,0,0.26666105,49.455837,17.46561)" />
        <path
           id="path85949"
           style="fill:#7d512c;fill-opacity:1;stroke-width:0.184471;filter:url(#filter83766)"
           d="m 39.488636,25.097078 c -0.235892,0.202736 -0.0381,0.635186 -0.150225,1.262285 -0.09077,0.507649 -0.806137,-0.356941 0.0266,1.329169 0.0342,0.06924 -0.837052,1.408316 -0.815712,1.474131 0.13835,0.426797 1.375981,-0.660047 1.611874,-0.862783 0.491618,-2.270717 0.0069,-3.337692 -0.672537,-3.202802 z"
           sodipodi:nodetypes="cssscc"
           transform="matrix(-0.26666105,0,0,0.26666105,49.736957,19.086183)" />
        <path
           id="path85951"
           style="fill:#7d512c;fill-opacity:1;stroke-width:0.184471;filter:url(#filter83766)"
           d="m 39.488636,25.097078 c -0.235892,0.202736 -0.0381,0.635186 -0.150225,1.262285 -0.09077,0.507649 -0.06069,0.914704 0.0266,1.329169 0.01591,0.07557 0.01802,0.31207 0.03936,0.377885 0.13835,0.426797 0.520909,0.436199 0.756802,0.233463 0.0035,-0.621579 0.531383,-2.005036 -0.05061,-1.934575 -0.558589,0.06763 -0.239392,-1.344064 -0.621925,-1.268227 z"
           sodipodi:nodetypes="cssscsc"
           transform="matrix(-0.26666105,0,0,0.19256588,50.778754,22.3832)" />
        <path
           id="path85953"
           style="fill:#7d512c;fill-opacity:1;stroke-width:0.184471;filter:url(#filter83766)"
           d="m 39.488636,25.097078 c -0.235892,0.202736 -0.0381,0.635186 -0.150225,1.262285 -0.09077,0.507649 -0.06069,0.914704 0.0266,1.329169 0.01591,0.07557 0.01802,0.31207 0.03936,0.377885 0.13835,0.426797 0.520909,0.436199 0.756802,0.233463 0.0079,-1.422694 0.0068,-3.337481 -0.672537,-3.202802 z"
           sodipodi:nodetypes="cssscc"
           transform="matrix(-0.26666105,0,0,0.19256588,49.472374,22.928903)" />
        <path
           id="path85955"
           style="fill:#7d512c;fill-opacity:1;stroke-width:0.184471;filter:url(#filter83766)"
           d="m 39.488636,25.097078 c -0.235892,0.202736 -0.0381,0.635186 -0.150225,1.262285 -0.09077,0.507649 -0.06069,0.914704 0.0266,1.329169 0.01591,0.07557 0.01802,0.31207 0.03936,0.377885 0.13835,0.426797 0.520909,0.436199 0.756802,0.233463 0.0079,-1.422694 0.0068,-3.337481 -0.672537,-3.202802 z"
           sodipodi:nodetypes="cssscc"
           transform="matrix(-0.20197877,0,0,0.14585639,46.504216,25.435586)" />
        <path
           id="path85957"
           style="fill:#7d512c;fill-opacity:1;stroke-width:0.184471;filter:url(#filter83766)"
           d="m 39.488636,25.097078 c -0.235892,0.202736 -0.0381,0.635186 -0.150225,1.262285 -0.09077,0.507649 -0.06069,0.914704 0.0266,1.329169 0.01591,0.07557 0.01802,0.31207 0.03936,0.377885 0.13835,0.426797 0.520909,0.436199 0.756802,0.233463 0.0079,-1.422694 0.0068,-3.337481 -0.672537,-3.202802 z"
           sodipodi:nodetypes="cssscc"
           transform="matrix(-0.20197877,0,0,0.14585639,46.570362,26.841185)" />
        <path
           id="path85959"
           style="fill:#7d512c;fill-opacity:1;stroke-width:0.184471;filter:url(#filter83766)"
           d="m 39.488636,25.097078 c -0.235892,0.202736 -0.0381,0.635186 -0.150225,1.262285 -0.09077,0.507649 -0.06069,0.914704 0.0266,1.329169 0.01591,0.07557 0.01802,0.31207 0.03936,0.377885 0.13835,0.426797 0.520909,0.436199 0.756802,0.233463 0.0079,-1.422694 0.0068,-3.337481 -0.672537,-3.202802 z"
           sodipodi:nodetypes="cssscc"
           transform="matrix(-0.15147323,-0.1336087,-0.09648382,0.10938446,47.493236,32.281119)" />
        <path
           id="path85961"
           style="fill:#7d512c;fill-opacity:1;stroke-width:0.184471;filter:url(#filter83766)"
           d="m 39.488636,25.097078 c -0.235892,0.202736 -0.0381,0.635186 -0.150225,1.262285 -0.09077,0.507649 -0.06069,0.914704 0.0266,1.329169 0.01591,0.07557 0.01802,0.31207 0.03936,0.377885 0.13835,0.426797 0.520909,0.436199 0.756802,0.233463 0.0079,-1.422694 0.0068,-3.337481 -0.672537,-3.202802 z"
           sodipodi:nodetypes="cssscc"
           transform="matrix(-0.15147323,-0.1336087,-0.09648382,0.10938446,47.050069,34.262477)" />
        <path
           id="path85963"
           style="fill:#7d512c;fill-opacity:1;stroke-width:0.184471;filter:url(#filter83766)"
           d="m 39.488636,25.097078 c -0.235892,0.202736 -0.0381,0.635186 -0.150225,1.262285 -0.09077,0.507649 -0.06069,0.914704 0.0266,1.329169 0.01591,0.07557 0.01802,0.31207 0.03936,0.377885 0.13835,0.426797 0.520909,0.436199 0.756802,0.233463 0.0079,-1.422694 0.0068,-3.337481 -0.672537,-3.202802 z"
           sodipodi:nodetypes="cssscc"
           transform="matrix(-0.15147323,-0.1336087,-0.09648382,0.10938446,49.282491,31.451279)" />
        <path
           id="path85965"
           style="fill:#7d512c;fill-opacity:1;stroke-width:0.184471;filter:url(#filter83766)"
           d="m 39.488636,25.097078 c -0.235892,0.202736 -0.0381,0.635186 -0.150225,1.262285 -0.09077,0.507649 -0.06069,0.914704 0.0266,1.329169 0.01591,0.07557 0.01802,0.31207 0.03936,0.377885 0.13835,0.426797 0.520909,0.436199 0.756802,0.233463 0.0079,-1.422694 0.0068,-3.337481 -0.672537,-3.202802 z"
           sodipodi:nodetypes="cssscc"
           transform="matrix(0.15147323,-0.1336087,0.09648382,0.10938446,32.415621,32.278102)" />
        <path
           id="path85967"
           style="fill:#7d512c;fill-opacity:1;stroke-width:0.184471;filter:url(#filter83766)"
           d="m 39.488636,25.097078 c -0.235892,0.202736 -0.0381,0.635186 -0.150225,1.262285 -0.09077,0.507649 -0.06069,0.914704 0.0266,1.329169 0.01591,0.07557 0.01802,0.31207 0.03936,0.377885 0.13835,0.426797 0.520909,0.436199 0.756802,0.233463 0.0079,-1.422694 0.0068,-3.337481 -0.672537,-3.202802 z"
           sodipodi:nodetypes="cssscc"
           transform="matrix(-0.15147323,-0.1336087,-0.09648382,0.10938446,49.480928,33.468727)" />
        <path
           id="path85969"
           style="fill:#7d512c;fill-opacity:1;stroke-width:0.184471;filter:url(#filter83766)"
           d="m 39.488636,25.097078 c -0.235892,0.202736 -0.0381,0.635186 -0.150225,1.262285 -0.09077,0.507649 -0.06069,0.914704 0.0266,1.329169 0.01591,0.07557 0.01802,0.31207 0.03936,0.377885 0.13835,0.426797 0.520909,0.436199 0.756802,0.233463 0.0079,-1.422694 0.0068,-3.337481 -0.672537,-3.202802 z"
           sodipodi:nodetypes="cssscc"
           transform="matrix(-0.26666105,0,0,0.19256588,52.695189,21.382958)" />
        <path
           id="path85971"
           style="fill:#7d512c;fill-opacity:1;stroke-width:0.184471;filter:url(#filter83766)"
           d="m 39.488636,25.097078 c -0.235892,0.202736 -0.0381,0.635186 -0.150225,1.262285 -0.09077,0.507649 -0.06069,0.914704 0.0266,1.329169 0.01591,0.07557 0.01802,0.31207 0.03936,0.377885 0.13835,0.426797 0.520909,0.436199 0.756802,0.233463 0.0035,-0.621579 0.531383,-2.005036 -0.05061,-1.934575 -0.558589,0.06763 -0.239392,-1.344064 -0.621925,-1.268227 z"
           sodipodi:nodetypes="cssscsc"
           transform="matrix(-0.26666105,0,0,0.19256588,50.278672,23.291906)" />
        <path
           id="path85973"
           style="fill:#7d512c;fill-opacity:1;stroke-width:0.184471;filter:url(#filter83766)"
           d="m 39.488636,25.097078 c -0.235892,0.202736 -0.0381,0.635186 -0.150225,1.262285 -0.09077,0.507649 -0.06069,0.914704 0.0266,1.329169 0.01591,0.07557 0.01802,0.31207 0.03936,0.377885 0.13835,0.426797 0.520909,0.436199 0.756802,0.233463 0.0035,-0.621579 0.531383,-2.005036 -0.05061,-1.934575 -0.558589,0.06763 -0.239392,-1.344064 -0.621925,-1.268227 z"
           sodipodi:nodetypes="cssscsc"
           transform="matrix(-0.26666105,0,0,0.19256588,52.680447,23.044658)" />
        <path
           id="path85975"
           style="fill:#7d512c;fill-opacity:1;stroke-width:0.184471;filter:url(#filter83766)"
           d="m 39.488636,25.097078 c -0.235892,0.202736 -0.0381,0.635186 -0.150225,1.262285 -0.09077,0.507649 -0.06069,0.914704 0.0266,1.329169 0.01591,0.07557 0.01802,0.31207 0.03936,0.377885 0.13835,0.426797 0.520909,0.436199 0.756802,0.233463 0.0079,-1.422694 0.0068,-3.337481 -0.672537,-3.202802 z"
           sodipodi:nodetypes="cssscc"
           transform="matrix(-0.26666105,0,0,0.19256588,52.360033,24.718459)" />
      </g>
      <path
         id="path86279"
         style="fill:#000000;fill-opacity:1;stroke-width:0.328445"
         d="m 170.44757,89.852782 c 0,0.358081 -0.70202,0.688982 -1.84168,0.868005 -1.13961,0.179092 -2.5437,0.179092 -3.68335,0 -1.13961,-0.179093 -1.84163,-0.509924 -1.84163,-0.868005 3.89121,0.208125 5.50597,0.01399 7.36666,0 z"
         sodipodi:nodetypes="csscc" />
      <path
         id="path85985"
         style="fill:url(#radialGradient86963);fill-opacity:1;stroke-width:0.438355"
         d="m 168.75975,89.883809 c 0,1.206916 -0.35673,2.375987 -0.95907,2.979447 -0.60229,0.60345 -1.34432,0.60345 -1.94657,0 -0.6023,-0.60346 -0.97329,-1.794043 -0.97329,-3.00096 2.11747,0.09969 2.90196,0.04862 3.87893,0.02099 z"
         sodipodi:nodetypes="csscc" />
    </g>
    <rect
       style="fill:none;stroke:#a61d1d;stroke-width:2.16624;stroke-dasharray:none;stroke-opacity:1"
       id="rect1"
       width="32.229588"
       height="50.750423"
       x="92.728249"
       y="66.349365"
       ry="2.9676285" />
  </g>
  <metadata
     id="metadata2">
    <rdf:RDF>
      <cc:Work
         rdf:about="">
        <dc:title>jeu_memory</dc:title>
      </cc:Work>
    </rdf:RDF>
  </metadata>
</svg>
